# xmcd
#
# Track frame offsets: 
#        150
#        11225
#        23649
#        39919
#        58463
#        77339
#        93206
#        105755
#        119876
#        133150
#        153031
#        163243
#        173942
#        183489
#        195681
#
# Disc length: 2729 seconds
#
# Revision: 2
# Processed by: cddbd v1.4PL0 Copyright (c) Steve Scherf et al.
# Submitted via: ExactAudioCopy v0.95a4
#
DISCID=bf0aa70f
DTITLE=Various Artist - Country Songs For The Aussie Bloke
DYEAR=2001
DGENRE=Country
TTITLE0=Roger Miller - King Of The Road
TTITLE1=Johnny Cash - I Walk The Line
TTITLE2=Charles Daniels Band - The Devil Went Down To Georgia
TTITLE3=George Jones - Bartender Blues
TTITLE4=Kris Kristofferson - Me And Bobby McGee
TTITLE5=Willie Nelson - Always On My Mind
TTITLE6=Roy Orbison - Crying
TTITLE7=Alabama - She Ain't Your Ordinary Girl
TTITLE8=Charlie Rich - Behind Closed Doors
TTITLE9=Marty Robbins - El Paso
TTITLE10=Carl Perkins - Blue Suede Shoes
TTITLE11=Waylon Jennings - Sally Was A Good Old Girl
TTITLE12=Charlie Pride - Kiss An Angel Good Morning
TTITLE13=Merle Haggard - Okie From Muskagee
TTITLE14=Frankie Laine - Rawhide
EXTD=
EXTT0=
EXTT1=
EXTT2=
EXTT3=
EXTT4=
EXTT5=
EXTT6=
EXTT7=
EXTT8=
EXTT9=
EXTT10=
EXTT11=
EXTT12=
EXTT13=
EXTT14=
PLAYORDER=
